<?xml version="1.0" encoding="utf-8"?>
<!-- Generator: Adobe Illustrator 24.3.0, SVG Export Plug-In . SVG Version: 6.00 Build 0)  -->
<svg version="1.1" xmlns="http://www.w3.org/2000/svg" xmlns:xlink="http://www.w3.org/1999/xlink" x="0px" y="0px"
	 viewBox="0 0 24 24" style="enable-background:new 0 0 24 24;" xml:space="preserve">
<style type="text/css">
	.st0{fill:#E89B8D;}
	.st1{fill:none;stroke:#E89B8D;stroke-miterlimit:10;}
	.st2{fill:none;stroke:#E89B8D;stroke-width:0.9631;stroke-miterlimit:10;}
	.st3{fill:none;stroke:#E89B8D;stroke-width:0.75;stroke-miterlimit:10;}
	.st4{fill:none;stroke:#E89B8D;stroke-width:0.9754;stroke-miterlimit:10;}
	.st5{fill:none;stroke:#E89B8D;stroke-width:0.75;stroke-linecap:round;stroke-miterlimit:10;}
	.st6{fill:none;stroke:#E89B8D;stroke-linecap:round;stroke-linejoin:round;stroke-miterlimit:10;}
	.st7{fill:none;stroke:#E89B8D;stroke-width:0.75;stroke-linecap:round;stroke-linejoin:round;stroke-miterlimit:10;}
	.st8{fill:none;stroke:#E89B8D;stroke-width:1.0248;stroke-miterlimit:10;}
	.st9{fill:none;stroke:#E89B8D;stroke-linecap:round;stroke-miterlimit:10;}
	.st10{fill:none;stroke:#E89B8D;stroke-linejoin:round;stroke-miterlimit:10;}
	.st11{fill:none;stroke:#E89B8D;stroke-width:1.1823;stroke-linecap:round;stroke-miterlimit:10;}
	.st12{fill:none;stroke:#E89B8D;stroke-width:1.0607;stroke-linecap:round;stroke-linejoin:round;stroke-miterlimit:10;}
	.st13{fill:#E89B8D;stroke:#E89B8D;stroke-linecap:round;stroke-linejoin:round;stroke-miterlimit:10;}
	.st14{fill:none;stroke:#E89B8D;stroke-width:2;stroke-linecap:round;stroke-linejoin:round;stroke-miterlimit:10;}
	.st15{fill:none;stroke:#E89B8D;stroke-width:0.9195;stroke-linecap:round;stroke-linejoin:round;stroke-miterlimit:10;}
	.st16{fill:none;stroke:#E89B8D;stroke-width:0.7997;stroke-linecap:round;stroke-linejoin:round;stroke-miterlimit:10;}
	.st17{fill:none;stroke:#E89B8D;stroke-width:0.8411;stroke-linecap:round;stroke-linejoin:round;stroke-miterlimit:10;}
	.st18{fill:none;stroke:#E89B8D;stroke-width:0.9827;stroke-miterlimit:10;}
	.st19{fill:#E89B8D;stroke:#E89B8D;stroke-width:0.7612;stroke-miterlimit:10;}
</style>
<g id="User">
</g>
<g id="Logout">
</g>
<g id="Home">
	<g id="Layer_7">
	</g>
</g>
<g id="Search">
</g>
<g id="Request">
</g>
<g id="Messages">
</g>
<g id="Comment">
</g>
<g id="Share">
</g>
<g id="Like">
</g>
<g id="chat">
</g>
<g id="Edit_x5F_profile">
</g>
<g id="Help">
</g>
<g id="Settings">
</g>
<g id="Location">
</g>
<g id="Camera">
</g>
<g id="Photo_Library">
</g>
<g id="Add_x5F_Post">
</g>
<g id="Close">
</g>
<g id="Delete">
</g>
<g id="Notification">
	<g>
		<path class="st18" d="M3.5,19.5c-0.21-0.72,0.19-2.1,1-4.85c0.91-3.09,1.94-5.39,3-7.27c1.66-2.96,2.56-3.45,3-3.64
			c0.21-0.09,1.53-0.64,3,0c0.44,0.19,1.34,0.68,3,3.64c1.06,1.88,2.09,4.18,3,7.27c0.81,2.75,1.21,4.13,1,4.85
			C19.11,24.17,4.89,24.17,3.5,19.5z"/>
		<g>
			<path class="st0" d="M12,17.46c5.05,0,7.69,1.57,7.69,2.11s-2.64,2.11-7.69,2.11s-7.69-1.57-7.69-2.11S6.95,17.46,12,17.46
				 M12,16.16c-4.97,0-9,1.53-9,3.42C3,21.47,7.03,23,12,23s9-1.53,9-3.42C21,17.69,16.97,16.16,12,16.16L12,16.16z"/>
		</g>
		<ellipse class="st18" cx="12" cy="1.98" rx="1.5" ry="0.98"/>
		<ellipse class="st19" cx="12" cy="19.09" rx="1" ry="1.47"/>
	</g>
</g>
<g id="Tag">
</g>
<g id="Yes">
</g>
</svg>
