<?xml version="1.0" encoding="utf-8"?>
<!-- Generator: Adobe Illustrator 24.3.0, SVG Export Plug-In . SVG Version: 6.00 Build 0)  -->
<svg version="1.1" xmlns="http://www.w3.org/2000/svg" xmlns:xlink="http://www.w3.org/1999/xlink" x="0px" y="0px"
	 viewBox="0 0 24 24" style="enable-background:new 0 0 24 24;" xml:space="preserve">
<style type="text/css">
	.st0{fill:#E89B8D;}
	.st1{fill:none;stroke:#E89B8D;stroke-miterlimit:10;}
	.st2{fill:none;stroke:#E89B8D;stroke-width:0.9631;stroke-miterlimit:10;}
	.st3{fill:none;stroke:#E89B8D;stroke-width:0.75;stroke-miterlimit:10;}
	.st4{fill:none;stroke:#E89B8D;stroke-width:0.9754;stroke-miterlimit:10;}
	.st5{fill:none;stroke:#E89B8D;stroke-width:0.75;stroke-linecap:round;stroke-miterlimit:10;}
	.st6{fill:none;stroke:#E89B8D;stroke-linecap:round;stroke-linejoin:round;stroke-miterlimit:10;}
	.st7{fill:none;stroke:#E89B8D;stroke-width:0.75;stroke-linecap:round;stroke-linejoin:round;stroke-miterlimit:10;}
	.st8{fill:none;stroke:#E89B8D;stroke-linecap:round;stroke-miterlimit:10;}
	.st9{fill:none;stroke:#E89B8D;stroke-linejoin:round;stroke-miterlimit:10;}
	.st10{fill:none;stroke:#E89B8D;stroke-width:1.1823;stroke-linecap:round;stroke-miterlimit:10;}
	.st11{fill:none;stroke:#E89B8D;stroke-width:1.0607;stroke-linecap:round;stroke-linejoin:round;stroke-miterlimit:10;}
	.st12{fill:none;stroke:#E89B8D;stroke-width:0.9258;stroke-linejoin:round;stroke-miterlimit:10;}
	.st13{fill:#E89B8D;stroke:#E89B8D;stroke-width:0.25;stroke-linecap:round;stroke-linejoin:round;stroke-miterlimit:10;}
	.st14{fill:none;stroke:#E89B8D;stroke-width:2;stroke-linecap:round;stroke-linejoin:round;stroke-miterlimit:10;}
	.st15{fill:none;stroke:#E89B8D;stroke-width:0.9195;stroke-linecap:round;stroke-linejoin:round;stroke-miterlimit:10;}
	.st16{fill:none;stroke:#E89B8D;stroke-width:0.7997;stroke-linecap:round;stroke-linejoin:round;stroke-miterlimit:10;}
	.st17{fill:none;stroke:#E89B8D;stroke-width:0.8411;stroke-linecap:round;stroke-linejoin:round;stroke-miterlimit:10;}
</style>
<g id="User">
</g>
<g id="Logout">
</g>
<g id="Home">
	<g id="Layer_7">
	</g>
</g>
<g id="Search">
</g>
<g id="Request">
</g>
<g id="Messages">
</g>
<g id="Comment">
</g>
<g id="Share">
</g>
<g id="Like">
</g>
<g id="chat">
	<g>
		<path class="st1" d="M21.01,1.74h-9.44c-0.27,0-0.5,0.22-0.5,0.5v7.81c0,0.27,0.22,0.5,0.5,0.5h4.4L19.7,13v-2.45h1.32
			c0.27,0,0.5-0.22,0.5-0.5V2.24C21.51,1.96,21.29,1.74,21.01,1.74z"/>
		<path class="st1" d="M13.47,10H3.45c-0.29,0-0.53,0.24-0.53,0.53v8.33c0,0.29,0.24,0.53,0.53,0.53h1.4V22l3.95-2.61h4.67
			c0.29,0,0.53-0.24,0.53-0.53v-8.33C14,10.24,13.76,10,13.47,10z"/>
		<line class="st8" x1="13.5" y1="4.5" x2="19.5" y2="4.5"/>
		<line class="st8" x1="13.5" y1="7.5" x2="19.5" y2="7.5"/>
		<line class="st8" x1="5.5" y1="13.5" x2="11.5" y2="13.5"/>
		<line class="st8" x1="5.5" y1="16.5" x2="11.5" y2="16.5"/>
	</g>
</g>
<g id="Edit_x5F_profile">
</g>
<g id="Help">
</g>
<g id="Settings">
</g>
<g id="Location">
</g>
<g id="Camera">
</g>
<g id="Photo_Library">
</g>
<g id="Add_x5F_Post">
</g>
<g id="Close">
</g>
<g id="Delete">
</g>
</svg>
