<?xml version="1.0" encoding="utf-8"?>
<!-- Generator: Adobe Illustrator 24.3.0, SVG Export Plug-In . SVG Version: 6.00 Build 0)  -->
<svg version="1.1" xmlns="http://www.w3.org/2000/svg" xmlns:xlink="http://www.w3.org/1999/xlink" x="0px" y="0px"
	 viewBox="0 0 24 24" style="enable-background:new 0 0 24 24;" xml:space="preserve">
<style type="text/css">
	.st0{fill:#E89B8D;}
	.st1{fill:none;stroke:#E89B8D;stroke-miterlimit:10;}
	.st2{fill:none;stroke:#E89B8D;stroke-width:0.9631;stroke-miterlimit:10;}
	.st3{fill:none;stroke:#E89B8D;stroke-width:0.75;stroke-miterlimit:10;}
	.st4{fill:none;stroke:#E89B8D;stroke-width:0.9754;stroke-miterlimit:10;}
	.st5{fill:none;stroke:#E89B8D;stroke-width:0.75;stroke-linecap:round;stroke-miterlimit:10;}
	.st6{fill:none;stroke:#E89B8D;stroke-linecap:round;stroke-linejoin:round;stroke-miterlimit:10;}
	.st7{fill:none;stroke:#E89B8D;stroke-width:0.75;stroke-linecap:round;stroke-linejoin:round;stroke-miterlimit:10;}
	.st8{fill:none;stroke:#E89B8D;stroke-linecap:round;stroke-miterlimit:10;}
	.st9{fill:none;stroke:#E89B8D;stroke-linejoin:round;stroke-miterlimit:10;}
	.st10{fill:none;stroke:#E89B8D;stroke-width:1.1823;stroke-linecap:round;stroke-miterlimit:10;}
	.st11{fill:none;stroke:#E89B8D;stroke-width:1.0607;stroke-linecap:round;stroke-linejoin:round;stroke-miterlimit:10;}
	.st12{fill:none;stroke:#E89B8D;stroke-width:0.9258;stroke-linejoin:round;stroke-miterlimit:10;}
	.st13{fill:#E89B8D;stroke:#E89B8D;stroke-width:0.25;stroke-linecap:round;stroke-linejoin:round;stroke-miterlimit:10;}
	.st14{fill:none;stroke:#E89B8D;stroke-width:2;stroke-linecap:round;stroke-linejoin:round;stroke-miterlimit:10;}
	.st15{fill:none;stroke:#E89B8D;stroke-width:0.9195;stroke-linecap:round;stroke-linejoin:round;stroke-miterlimit:10;}
	.st16{fill:none;stroke:#E89B8D;stroke-width:0.7997;stroke-linecap:round;stroke-linejoin:round;stroke-miterlimit:10;}
	.st17{fill:none;stroke:#E89B8D;stroke-width:0.8411;stroke-linecap:round;stroke-linejoin:round;stroke-miterlimit:10;}
</style>
<g id="User">
</g>
<g id="Logout">
</g>
<g id="Home">
	<g id="Layer_7">
	</g>
</g>
<g id="Search">
</g>
<g id="Request">
</g>
<g id="Messages">
</g>
<g id="Comment">
</g>
<g id="Share">
</g>
<g id="Like">
	<g>
		<polyline class="st6" points="3.59,12.22 3.6,21.27 15.06,21.27 		"/>
		<path class="st6" d="M3.59,12.22c0.32-0.09,0.83-0.27,1.36-0.63c1.84-1.25,2.23-3.53,2.34-4.13c0.19-1.13,0.16-2.23,0.16-2.23
			C7.42,4.09,7.22,3.68,7.5,3.28c0.4-0.56,1.52-0.74,2.34-0.38c2.08,0.91,2.38,5.37,1.63,6.52c-0.06,0.09-0.27,0.38-0.16,0.6
			c0.14,0.29,0.79,0.24,1.14,0.22c0,0,2.51-0.17,4.51-0.05c1.32,0.08,1.71,0.3,1.85,0.38c0.94,0.57,1.27,1.62,1.41,2.06
			c0.23,0.74,0.2,1.33,0.16,2.12c-0.04,0.87-0.19,1.48-0.47,2.64c-0.25,1.03-0.44,1.54-0.59,1.91c-0.47,1.11-0.83,1.38-0.98,1.48
			c-0.18,0.12-0.44,0.26-1.31,0.38c-0.56,0.08-1.35,0.15-2.33,0.1"/>
		<path class="st6" d="M19.81,12.6c-0.62,0.76-1.59,1.19-2.56,1.36c-0.97,0.17-1.97,0.1-2.95,0.03"/>
		<path class="st6" d="M19.8,17.19c-0.99,0.14-1.92,0.51-2.88,0.78c-0.96,0.27-1.99,0.44-2.95,0.19"/>
	</g>
</g>
<g id="chat">
</g>
<g id="Edit_x5F_profile">
</g>
<g id="Help">
</g>
<g id="Settings">
</g>
<g id="Location">
</g>
<g id="Camera">
</g>
<g id="Photo_Library">
</g>
<g id="Add_x5F_Post">
</g>
<g id="Close">
</g>
<g id="Delete">
</g>
</svg>
