<?xml version="1.0" encoding="utf-8"?>
<!-- Generator: Adobe Illustrator 24.3.0, SVG Export Plug-In . SVG Version: 6.00 Build 0)  -->
<svg version="1.1" xmlns="http://www.w3.org/2000/svg" xmlns:xlink="http://www.w3.org/1999/xlink" x="0px" y="0px"
	 viewBox="0 0 24 24" style="enable-background:new 0 0 24 24;" xml:space="preserve">
<style type="text/css">
	.st0{fill:#E89B8D;}
	.st1{fill:none;stroke:#E89B8D;stroke-miterlimit:10;}
	.st2{fill:none;stroke:#E89B8D;stroke-width:0.9631;stroke-miterlimit:10;}
	.st3{fill:none;stroke:#E89B8D;stroke-width:0.75;stroke-miterlimit:10;}
	.st4{fill:none;stroke:#E89B8D;stroke-width:0.9754;stroke-miterlimit:10;}
	.st5{fill:none;stroke:#E89B8D;stroke-width:0.75;stroke-linecap:round;stroke-miterlimit:10;}
	.st6{fill:none;stroke:#E89B8D;stroke-linecap:round;stroke-linejoin:round;stroke-miterlimit:10;}
	.st7{fill:none;stroke:#E89B8D;stroke-width:0.75;stroke-linecap:round;stroke-linejoin:round;stroke-miterlimit:10;}
	.st8{fill:none;stroke:#E89B8D;stroke-linecap:round;stroke-miterlimit:10;}
	.st9{fill:none;stroke:#E89B8D;stroke-linejoin:round;stroke-miterlimit:10;}
	.st10{fill:none;stroke:#E89B8D;stroke-width:1.1823;stroke-linecap:round;stroke-miterlimit:10;}
	.st11{fill:none;stroke:#E89B8D;stroke-width:1.0607;stroke-linecap:round;stroke-linejoin:round;stroke-miterlimit:10;}
	.st12{fill:none;stroke:#E89B8D;stroke-width:0.9258;stroke-linejoin:round;stroke-miterlimit:10;}
	.st13{fill:#E89B8D;stroke:#E89B8D;stroke-width:0.25;stroke-linecap:round;stroke-linejoin:round;stroke-miterlimit:10;}
	.st14{fill:none;stroke:#E89B8D;stroke-width:2;stroke-linecap:round;stroke-linejoin:round;stroke-miterlimit:10;}
	.st15{fill:none;stroke:#E89B8D;stroke-width:0.9195;stroke-linecap:round;stroke-linejoin:round;stroke-miterlimit:10;}
	.st16{fill:none;stroke:#E89B8D;stroke-width:0.7997;stroke-linecap:round;stroke-linejoin:round;stroke-miterlimit:10;}
	.st17{fill:none;stroke:#E89B8D;stroke-width:0.8411;stroke-linecap:round;stroke-linejoin:round;stroke-miterlimit:10;}
</style>
<g id="User">
</g>
<g id="Logout">
</g>
<g id="Home">
	<g id="Layer_7">
	</g>
</g>
<g id="Search">
</g>
<g id="Request">
	<g>
		<g>
			<polygon class="st0" points="20.02,2.08 19.02,2.08 19.02,3.58 17.52,3.58 17.52,4.58 19.02,4.58 19.02,6.08 20.02,6.08 
				20.02,4.58 21.52,4.58 21.52,3.58 20.02,3.58 20.02,2.08 			"/>
		</g>
		<g>
			<g>
				<g>
					<path class="st0" d="M12,13.54c-0.28,0-0.5,0.22-0.5,0.5c0,0.28,0.22,0.5,0.5,0.5s0.5-0.22,0.5-0.5
						C12.5,13.77,12.28,13.54,12,13.54L12,13.54z"/>
				</g>
				<g>
					<path class="st0" d="M12,15.54c-0.28,0-0.5,0.22-0.5,0.5c0,0.28,0.22,0.5,0.5,0.5s0.5-0.22,0.5-0.5
						C12.5,15.77,12.28,15.54,12,15.54L12,15.54z"/>
				</g>
				<g>
					<path class="st0" d="M12,17.54c-0.28,0-0.5,0.22-0.5,0.5c0,0.28,0.22,0.5,0.5,0.5s0.5-0.22,0.5-0.5
						C12.5,17.77,12.28,17.54,12,17.54L12,17.54z"/>
				</g>
				<g>
					<path class="st0" d="M12,19.54c-0.28,0-0.5,0.22-0.5,0.5c0,0.28,0.22,0.5,0.5,0.5s0.5-0.22,0.5-0.5
						C12.5,19.77,12.28,19.54,12,19.54L12,19.54z"/>
				</g>
			</g>
			<g>
				<path class="st0" d="M12,2.46c0.34,0,0.69,0.04,1.04,0.11c1.79,0.38,3.25,1.84,3.61,3.64c0.47,2.33-0.78,4.63-2.99,5.45
					L12,12.27l-1.66-0.62c-1.85-0.69-3.09-2.48-3.09-4.44C7.25,4.59,9.38,2.46,12,2.46 M12,13.25l1.84,0.32
					c1.25,0.22,2.4,0.63,3.42,1.21c3.32,1.9,4.57,5.01,5.03,6.76H1.72c0.46-1.74,1.71-4.86,5.03-6.76c1.02-0.58,2.17-0.99,3.42-1.21
					L12,13.25 M12,1.46c-3.18,0-5.75,2.57-5.75,5.75c0,2.47,1.56,4.57,3.74,5.38c-1.3,0.23-2.57,0.66-3.74,1.33
					c-4.87,2.79-5.67,8-5.75,8.62h23c-0.08-0.62-0.88-5.84-5.75-8.62c-1.17-0.67-2.44-1.1-3.74-1.33c2.53-0.95,4.22-3.62,3.62-6.59
					c-0.44-2.19-2.2-3.96-4.39-4.42C12.82,1.5,12.41,1.46,12,1.46L12,1.46z"/>
			</g>
		</g>
	</g>
</g>
<g id="Messages">
</g>
<g id="Comment">
</g>
<g id="Share">
</g>
<g id="Like">
</g>
<g id="chat">
</g>
<g id="Edit_x5F_profile">
</g>
<g id="Help">
</g>
<g id="Settings">
</g>
<g id="Location">
</g>
<g id="Camera">
</g>
<g id="Photo_Library">
</g>
<g id="Add_x5F_Post">
</g>
<g id="Close">
</g>
<g id="Delete">
</g>
</svg>
