<?xml version="1.0" encoding="utf-8"?>
<!-- Generator: Adobe Illustrator 24.3.0, SVG Export Plug-In . SVG Version: 6.00 Build 0)  -->
<svg version="1.1" xmlns="http://www.w3.org/2000/svg" xmlns:xlink="http://www.w3.org/1999/xlink" x="0px" y="0px"
	 viewBox="0 0 24 24" style="enable-background:new 0 0 24 24;" xml:space="preserve">
<style type="text/css">
	.st0{fill:#E89B8D;}
	.st1{fill:none;stroke:#E89B8D;stroke-width:1.1345;stroke-linecap:round;stroke-linejoin:round;stroke-miterlimit:10;}
	.st2{fill:none;stroke:#E89B8D;stroke-width:1.2254;stroke-linecap:round;stroke-linejoin:round;stroke-miterlimit:10;}
	.st3{fill:none;stroke:#E89B8D;stroke-width:0.9631;stroke-miterlimit:10;}
	.st4{fill:none;stroke:#E89B8D;stroke-width:0.75;stroke-miterlimit:10;}
	.st5{fill:none;stroke:#E89B8D;stroke-width:0.9754;stroke-miterlimit:10;}
	.st6{fill:none;stroke:#E89B8D;stroke-miterlimit:10;}
	.st7{fill:none;stroke:#E89B8D;stroke-width:0.75;stroke-linecap:round;stroke-miterlimit:10;}
	.st8{fill:none;stroke:#E89B8D;stroke-linecap:round;stroke-linejoin:round;stroke-miterlimit:10;}
	.st9{fill:none;stroke:#E89B8D;stroke-width:0.75;stroke-linecap:round;stroke-linejoin:round;stroke-miterlimit:10;}
	.st10{fill:none;stroke:#E89B8D;stroke-width:1.0248;stroke-miterlimit:10;}
	.st11{fill:none;stroke:#E89B8D;stroke-linecap:round;stroke-miterlimit:10;}
	.st12{fill:none;stroke:#E89B8D;stroke-linejoin:round;stroke-miterlimit:10;}
	.st13{fill:none;stroke:#E89B8D;stroke-width:1.1823;stroke-linecap:round;stroke-miterlimit:10;}
	.st14{fill:none;stroke:#E89B8D;stroke-width:1.0607;stroke-linecap:round;stroke-linejoin:round;stroke-miterlimit:10;}
	.st15{fill:#E89B8D;stroke:#E89B8D;stroke-linecap:round;stroke-linejoin:round;stroke-miterlimit:10;}
	.st16{fill:none;stroke:#E89B8D;stroke-width:2;stroke-linecap:round;stroke-linejoin:round;stroke-miterlimit:10;}
	.st17{fill:none;stroke:#E89B8D;stroke-width:0.9195;stroke-linecap:round;stroke-linejoin:round;stroke-miterlimit:10;}
	.st18{fill:none;stroke:#E89B8D;stroke-width:0.7997;stroke-linecap:round;stroke-linejoin:round;stroke-miterlimit:10;}
	.st19{fill:none;stroke:#E89B8D;stroke-width:0.8411;stroke-linecap:round;stroke-linejoin:round;stroke-miterlimit:10;}
	.st20{fill:none;stroke:#E89B8D;stroke-width:0.9827;stroke-miterlimit:10;}
	.st21{fill:#E89B8D;stroke:#E89B8D;stroke-width:0.7612;stroke-miterlimit:10;}
	.st22{fill:none;stroke:#E89B8D;stroke-width:1.0672;stroke-linejoin:round;stroke-miterlimit:10;}
	.st23{fill:none;stroke:#E89B8D;stroke-width:0.75;stroke-linejoin:round;stroke-miterlimit:10;}
	.st24{fill:none;stroke:#E89B8D;stroke-width:1.0672;stroke-linecap:round;stroke-linejoin:round;stroke-miterlimit:10;}
</style>
<g id="User">
</g>
<g id="Logout">
</g>
<g id="Home">
	<g id="Layer_7">
	</g>
</g>
<g id="Search">
</g>
<g id="Request">
</g>
<g id="Messages">
</g>
<g id="Comment">
</g>
<g id="Share">
</g>
<g id="Like">
</g>
<g id="chat">
</g>
<g id="Edit_x5F_profile">
</g>
<g id="Help">
</g>
<g id="Settings">
</g>
<g id="Location">
</g>
<g id="Camera">
</g>
<g id="Photo_Library">
</g>
<g id="Add_x5F_Post">
</g>
<g id="Close">
</g>
<g id="Delete">
</g>
<g id="Notification">
</g>
<g id="Tag">
</g>
<g id="Yes">
</g>
<g id="Report">
	<g>
		<polygon class="st12" points="3.07,6.25 8,1.63 8.01,6.23 		"/>
		<polygon class="st12" points="8,1.63 20.86,1.58 20.93,22.36 3.12,22.42 3.07,6.25 		"/>
	</g>
	<g>
		<path class="st0" d="M12,7.5c0.15,0,0.3,0.02,0.44,0.05c0.75,0.16,1.36,0.77,1.51,1.53c0.23,1.12-0.46,2-1.26,2.3L12,11.63
			l-0.7-0.26C10.52,11.08,10,10.33,10,9.5C10,8.39,10.9,7.5,12,7.5 M12,13.14l0.88,0.15c0.6,0.1,1.14,0.3,1.63,0.58
			c1.24,0.71,1.88,1.8,2.2,2.64H7.29c0.32-0.83,0.96-1.92,2.2-2.64c0.48-0.28,1.03-0.47,1.63-0.58L12,13.14 M12,6.5
			c-1.66,0-3,1.34-3,3c0,1.29,0.81,2.38,1.95,2.81C10.27,12.43,9.61,12.65,9,13c-2.54,1.46-2.96,4.18-3,4.5H18
			c-0.04-0.32-0.46-3.05-3-4.5c-0.61-0.35-1.27-0.57-1.95-0.69c1.32-0.49,2.2-1.89,1.89-3.44c-0.23-1.14-1.15-2.07-2.29-2.31
			C12.43,6.52,12.21,6.5,12,6.5L12,6.5z"/>
	</g>
</g>
<g id="Filter">
</g>
</svg>
