<?xml version="1.0" encoding="utf-8"?>
<!-- Generator: Adobe Illustrator 24.3.0, SVG Export Plug-In . SVG Version: 6.00 Build 0)  -->
<svg version="1.1" xmlns="http://www.w3.org/2000/svg" xmlns:xlink="http://www.w3.org/1999/xlink" x="0px" y="0px"
	 viewBox="0 0 24 24" style="enable-background:new 0 0 24 24;" xml:space="preserve">
<style type="text/css">
	.st0{fill:#E89B8D;}
	.st1{fill:none;stroke:#E89B8D;stroke-miterlimit:10;}
	.st2{fill:none;stroke:#E89B8D;stroke-width:0.9631;stroke-miterlimit:10;}
	.st3{fill:none;stroke:#E89B8D;stroke-width:0.75;stroke-miterlimit:10;}
	.st4{fill:none;stroke:#E89B8D;stroke-width:0.9754;stroke-miterlimit:10;}
	.st5{fill:none;stroke:#E89B8D;stroke-width:0.75;stroke-linecap:round;stroke-miterlimit:10;}
	.st6{fill:none;stroke:#E89B8D;stroke-linecap:round;stroke-linejoin:round;stroke-miterlimit:10;}
	.st7{fill:none;stroke:#E89B8D;stroke-width:0.75;stroke-linecap:round;stroke-linejoin:round;stroke-miterlimit:10;}
	.st8{fill:none;stroke:#E89B8D;stroke-linecap:round;stroke-miterlimit:10;}
	.st9{fill:none;stroke:#E89B8D;stroke-linejoin:round;stroke-miterlimit:10;}
	.st10{fill:none;stroke:#E89B8D;stroke-width:1.1823;stroke-linecap:round;stroke-miterlimit:10;}
	.st11{fill:none;stroke:#E89B8D;stroke-width:1.0607;stroke-linecap:round;stroke-linejoin:round;stroke-miterlimit:10;}
	.st12{fill:none;stroke:#E89B8D;stroke-width:0.9258;stroke-linejoin:round;stroke-miterlimit:10;}
	.st13{fill:#E89B8D;stroke:#E89B8D;stroke-width:0.25;stroke-linecap:round;stroke-linejoin:round;stroke-miterlimit:10;}
	.st14{fill:none;stroke:#E89B8D;stroke-width:2;stroke-linecap:round;stroke-linejoin:round;stroke-miterlimit:10;}
	.st15{fill:none;stroke:#E89B8D;stroke-width:0.9195;stroke-linecap:round;stroke-linejoin:round;stroke-miterlimit:10;}
	.st16{fill:none;stroke:#E89B8D;stroke-width:0.7997;stroke-linecap:round;stroke-linejoin:round;stroke-miterlimit:10;}
	.st17{fill:none;stroke:#E89B8D;stroke-width:0.8411;stroke-linecap:round;stroke-linejoin:round;stroke-miterlimit:10;}
</style>
<g id="User">
</g>
<g id="Logout">
</g>
<g id="Home">
	<g id="Layer_7">
	</g>
</g>
<g id="Search">
</g>
<g id="Request">
</g>
<g id="Messages">
</g>
<g id="Comment">
</g>
<g id="Share">
</g>
<g id="Like">
</g>
<g id="chat">
</g>
<g id="Edit_x5F_profile">
</g>
<g id="Help">
</g>
<g id="Settings">
</g>
<g id="Location">
	<g>
		<path class="st11" d="M18.28,7.44c0-3.35-2.81-6.07-6.28-6.07S5.72,4.09,5.72,7.44c0,0.7,0.13,1.37,0.36,2h0
			c0.01,0.01,0.01,0.02,0.02,0.03c0.18,0.49,0.41,0.95,0.71,1.37c2.1,4.04,3.35,6.46,4.1,7.9C9.51,19,8.5,19.74,8.5,20.62
			c0,1.1,1.57,2,3.5,2s3.5-0.9,3.5-2c0-0.88-1-1.62-2.39-1.89l4.1-7.9c0.29-0.42,0.52-0.87,0.7-1.35l0.02-0.04h-0.01
			C18.15,8.81,18.28,8.14,18.28,7.44z"/>
		<polyline class="st11" points="10.72,18.4 12,20.96 13.28,18.4 		"/>
	</g>
</g>
<g id="Camera">
</g>
<g id="Photo_Library">
</g>
<g id="Add_x5F_Post">
</g>
<g id="Close">
</g>
<g id="Delete">
</g>
</svg>
